{
  "accessors": [
    {
      "bufferView": 2,
      "componentType": 5126,
      "count": 65532,
      "max": [
        47.6227912902832,
        148.77325439453125,
        38.01094055175781
      ],
      "min": [
        -63.4597053527832,
        6.930025100708008,
        -50.09052658081055
      ],
      "type": "VEC3"
    },
    {
      "bufferView": 2,
      "byteOffset": 786384,
      "componentType": 5126,
      "count": 65532,
      "max": [
        0.9996866583824158,
        0.9993805289268494,
        0.9998940229415894
      ],
      "min": [
        -0.9998974800109863,
        -0.9958018660545349,
        -0.9999851584434509
      ],
      "type": "VEC3"
    },
    {
      "bufferView": 1,
      "componentType": 5126,
      "count": 65532,
      "max": [
        246.2958984375,
        579.70556640625
      ],
      "min": [
        -246.2958984375,
        -638.818359375
      ],
      "type": "VEC2"
    },
    {
      "bufferView": 0,
      "componentType": 5125,
      "count": 367254,
      "type": "SCALAR"
    },
    {
      "bufferView": 2,
      "byteOffset": 1572768,
      "componentType": 5126,
      "count": 65532,
      "max": [
        61.156951904296875,
        114.7573013305664,
        37.96593475341797
      ],
      "min": [
        -62.93673324584961,
        6.355327129364014,
        -51.13661193847656
      ],
      "type": "VEC3"
    },
    {
      "bufferView": 2,
      "byteOffset": 2359152,
      "componentType": 5126,
      "count": 65532,
      "max": [
        0.9975789189338684,
        0.9993776679039001,
        0.9998893737792969
      ],
      "min": [
        -0.999869704246521,
        -0.9722736477851868,
        -0.9999075531959534
      ],
      "type": "VEC3"
    },
    {
      "bufferView": 1,
      "byteOffset": 524256,
      "componentType": 5126,
      "count": 65532,
      "max": [
        246.2958984375,
        579.70556640625
      ],
      "min": [
        -246.2958984375,
        -638.8212890625
      ],
      "type": "VEC2"
    },
    {
      "bufferView": 0,
      "byteOffset": 1469016,
      "componentType": 5125,
      "count": 358926,
      "type": "SCALAR"
    },
    {
      "bufferView": 2,
      "byteOffset": 3145536,
      "componentType": 5126,
      "count": 65532,
      "max": [
        62.675567626953125,
        114.9524917602539,
        57.44352340698242
      ],
      "min": [
        -45.79824447631836,
        6.2715349197387695,
        -64.94256591796875
      ],
      "type": "VEC3"
    },
    {
      "bufferView": 2,
      "byteOffset": 3931920,
      "componentType": 5126,
      "count": 65532,
      "max": [
        0.9923890233039856,
        0.9993797540664673,
        0.9999215602874756
      ],
      "min": [
        -0.9956520199775696,
        -0.8465203046798706,
        -0.9968513250350952
      ],
      "type": "VEC3"
    },
    {
      "bufferView": 1,
      "byteOffset": 1048512,
      "componentType": 5126,
      "count": 65532,
      "max": [
        246.2958984375,
        579.70556640625
      ],
      "min": [
        -246.2958984375,
        -638.82177734375
      ],
      "type": "VEC2"
    },
    {
      "bufferView": 0,
      "byteOffset": 2904720,
      "componentType": 5125,
      "count": 337740,
      "type": "SCALAR"
    },
    {
      "bufferView": 2,
      "byteOffset": 4718304,
      "componentType": 5126,
      "count": 65532,
      "max": [
        45.64243698120117,
        152.85498046875,
        57.08726119995117
      ],
      "min": [
        -48.54905319213867,
        6.221733093261719,
        -66.15499114990234
      ],
      "type": "VEC3"
    },
    {
      "bufferView": 2,
      "byteOffset": 5504688,
      "componentType": 5126,
      "count": 65532,
      "max": [
        1.0,
        0.9999948740005493,
        0.9999610781669617
      ],
      "min": [
        -0.9999517798423767,
        -0.9998114705085754,
        -0.9999898672103882
      ],
      "type": "VEC3"
    },
    {
      "bufferView": 1,
      "byteOffset": 1572768,
      "componentType": 5126,
      "count": 65532,
      "max": [
        491.311767578125,
        579.70556640625
      ],
      "min": [
        -491.3116455078125,
        -638.8215942382813
      ],
      "type": "VEC2"
    },
    {
      "bufferView": 0,
      "byteOffset": 4255680,
      "componentType": 5125,
      "count": 328956,
      "type": "SCALAR"
    },
    {
      "bufferView": 2,
      "byteOffset": 6291072,
      "componentType": 5126,
      "count": 33099,
      "max": [
        37.20278549194336,
        114.04332733154297,
        -11.256468772888184
      ],
      "min": [
        -48.54905319213867,
        6.784482002258301,
        -66.15499114990234
      ],
      "type": "VEC3"
    },
    {
      "bufferView": 2,
      "byteOffset": 6688260,
      "componentType": 5126,
      "count": 33099,
      "max": [
        0.9845591187477112,
        0.989011824131012,
        0.9842658042907715
      ],
      "min": [
        -0.9956520199775696,
        -0.7930642366409302,
        -0.9881440997123718
      ],
      "type": "VEC3"
    },
    {
      "bufferView": 1,
      "byteOffset": 2097024,
      "componentType": 5126,
      "count": 33099,
      "max": [
        246.2958984375,
        529.18017578125
      ],
      "min": [
        -246.2957763671875,
        -638.818359375
      ],
      "type": "VEC2"
    },
    {
      "bufferView": 0,
      "byteOffset": 5571504,
      "componentType": 5125,
      "count": 165711,
      "type": "SCALAR"
    }
  ],
  "asset": {
    "extras": {
      "author": "manuel_A (https://sketchfab.com/manuel_A)",
      "license": "CC-BY-4.0 (http://creativecommons.org/licenses/by/4.0/)",
      "source": "https://sketchfab.com/3d-models/badly-simulated-dress-9e73d3d771e44e6a85c62b8e2f5bae52",
      "title": "Badly simulated Dress"
    },
    "generator": "Sketchfab-12.68.0",
    "version": "2.0"
  },
  "bufferViews": [
    {
      "buffer": 0,
      "byteLength": 6234348,
      "name": "floatBufferViews",
      "target": 34963
    },
    {
      "buffer": 0,
      "byteLength": 2361816,
      "byteOffset": 6234348,
      "byteStride": 8,
      "name": "floatBufferViews",
      "target": 34962
    },
    {
      "buffer": 0,
      "byteLength": 7085448,
      "byteOffset": 8596164,
      "byteStride": 12,
      "name": "floatBufferViews",
      "target": 34962
    }
  ],
  "buffers": [
    {
      "byteLength": 15681612,
      "uri": "scene.bin"
    }
  ],
  "materials": [
    {
      "doubleSided": true,
      "name": "FABRIC_3_FRONT_4673.001",
      "pbrMetallicRoughness": {
        "baseColorFactor": [
          0.8,
          0.8,
          0.8,
          1.0
        ],
        "metallicFactor": 0.0,
        "roughnessFactor": 0.5653582317073171
      }
    }
  ],
  "meshes": [
    {
      "name": "dress.001_FABRIC 3_FRONT_4673.001_0",
      "primitives": [
        {
          "attributes": {
            "NORMAL": 1,
            "POSITION": 0,
            "TEXCOORD_0": 2
          },
          "indices": 3,
          "material": 0,
          "mode": 4
        }
      ]
    },
    {
      "name": "dress.001_FABRIC 3_FRONT_4673.001_0",
      "primitives": [
        {
          "attributes": {
            "NORMAL": 5,
            "POSITION": 4,
            "TEXCOORD_0": 6
          },
          "indices": 7,
          "material": 0,
          "mode": 4
        }
      ]
    },
    {
      "name": "dress.001_FABRIC 3_FRONT_4673.001_0",
      "primitives": [
        {
          "attributes": {
            "NORMAL": 9,
            "POSITION": 8,
            "TEXCOORD_0": 10
          },
          "indices": 11,
          "material": 0,
          "mode": 4
        }
      ]
    },
    {
      "name": "dress.001_FABRIC 3_FRONT_4673.001_0",
      "primitives": [
        {
          "attributes": {
            "NORMAL": 13,
            "POSITION": 12,
            "TEXCOORD_0": 14
          },
          "indices": 15,
          "material": 0,
          "mode": 4
        }
      ]
    },
    {
      "name": "dress.001_FABRIC 3_FRONT_4673.001_0",
      "primitives": [
        {
          "attributes": {
            "NORMAL": 17,
            "POSITION": 16,
            "TEXCOORD_0": 18
          },
          "indices": 19,
          "material": 0,
          "mode": 4
        }
      ]
    }
  ],
  "nodes": [
    {
      "children": [
        1
      ],
      "matrix": [
        1.0,
        0.0,
        0.0,
        0.0,
        0.0,
        2.220446049250313e-16,
        -1.0,
        0.0,
        0.0,
        1.0,
        2.220446049250313e-16,
        0.0,
        0.0,
        0.0,
        0.0,
        1.0
      ],
      "name": "Sketchfab_model"
    },
    {
      "children": [
        2
      ],
      "matrix": [
        1.0,
        0.0,
        0.0,
        0.0,
        0.0,
        0.0,
        1.0,
        0.0,
        0.0,
        -1.0,
        0.0,
        0.0,
        0.0,
        0.0,
        0.0,
        1.0
      ],
      "name": "41c1a3f6114d446184aa94e945e34e74.fbx"
    },
    {
      "children": [
        3
      ],
      "name": "RootNode"
    },
    {
      "children": [
        4,
        5,
        6,
        7,
        8
      ],
      "matrix": [
        100.0,
        0.0,
        0.0,
        0.0,
        0.0,
        99.99999999999866,
        1.6292067073209114e-05,
        0.0,
        0.0,
        -1.6292067073209114e-05,
        99.99999999999866,
        0.0,
        0.0,
        0.0,
        0.0,
        1.0
      ],
      "name": "dress.001"
    },
    {
      "mesh": 0,
      "name": "dress.001_FABRIC 3_FRONT_4673.001_0"
    },
    {
      "mesh": 1,
      "name": "dress.001_FABRIC 3_FRONT_4673.001_0"
    },
    {
      "mesh": 2,
      "name": "dress.001_FABRIC 3_FRONT_4673.001_0"
    },
    {
      "mesh": 3,
      "name": "dress.001_FABRIC 3_FRONT_4673.001_0"
    },
    {
      "mesh": 4,
      "name": "dress.001_FABRIC 3_FRONT_4673.001_0"
    }
  ],
  "scene": 0,
  "scenes": [
    {
      "name": "Sketchfab_Scene",
      "nodes": [
        0
      ]
    }
  ]
}
